<svg xmlns="http://www.w3.org/2000/svg" xmlns:xlink="http://www.w3.org/1999/xlink" width="964" zoomAndPan="magnify" viewBox="0 0 723 186.749996" height="249" preserveAspectRatio="xMidYMid meet" version="1.0"><defs><g/></defs><g fill="#000000" fill-opacity="1"><g transform="translate(102.698488, 127.045656)"><g><path d="M 5.828125 23.671875 L 5.828125 -65.9375 L 24.796875 -67.546875 L 27.765625 -66.0625 C 29.085938 -67.132812 30.613281 -68.0625 32.34375 -68.84375 C 34.082031 -69.632812 36.066406 -70.113281 38.296875 -70.28125 C 38.796875 -70.363281 39.289062 -70.40625 39.78125 -70.40625 C 40.28125 -70.40625 40.78125 -70.40625 41.28125 -70.40625 C 45.738281 -70.40625 50.050781 -69.578125 54.21875 -67.921875 C 58.394531 -66.273438 62.15625 -63.773438 65.5 -60.421875 C 68.851562 -57.078125 71.519531 -52.925781 73.5 -47.96875 C 75.488281 -43.007812 76.484375 -37.1875 76.484375 -30.5 C 76.484375 -18.757812 74.207031 -9.707031 69.65625 -3.34375 C 65.113281 3.019531 58.796875 6.53125 50.703125 7.1875 C 50.367188 7.269531 50.015625 7.3125 49.640625 7.3125 C 49.265625 7.3125 48.875 7.3125 48.46875 7.3125 C 46.15625 7.3125 44.148438 7.0625 42.453125 6.5625 C 40.753906 6.070312 39.410156 5.617188 38.421875 5.203125 L 38.421875 28.140625 L 18.21875 29.875 Z M 25.15625 -5.453125 C 25.820312 -3.878906 27.101562 -2.578125 29 -1.546875 C 30.90625 -0.515625 33.265625 0 36.078125 0 C 36.398438 0 36.75 0 37.125 0 C 37.5 0 37.847656 -0.0390625 38.171875 -0.125 C 46.023438 -0.78125 52.097656 -4.207031 56.390625 -10.40625 C 60.691406 -16.601562 62.84375 -25.363281 62.84375 -36.6875 C 62.84375 -47.507812 60.859375 -55.628906 56.890625 -61.046875 C 52.921875 -66.460938 47.507812 -69.171875 40.65625 -69.171875 C 40.320312 -69.171875 39.96875 -69.171875 39.59375 -69.171875 C 39.226562 -69.171875 38.835938 -69.128906 38.421875 -69.046875 C 34.535156 -68.710938 31.394531 -67.53125 29 -65.5 C 26.601562 -63.476562 24.910156 -61.1875 23.921875 -58.625 L 23.546875 -58.625 L 23.546875 -66.1875 L 7.0625 -64.828125 L 7.0625 22.3125 L 24.796875 20.828125 L 24.796875 -5.328125 Z M 33.09375 -16.609375 C 31.03125 -16.609375 29.234375 -17.144531 27.703125 -18.21875 C 26.171875 -19.289062 25.203125 -20.695312 24.796875 -22.4375 L 24.796875 -39.546875 C 24.796875 -43.265625 25.679688 -46.320312 27.453125 -48.71875 C 29.234375 -51.113281 31.566406 -52.4375 34.453125 -52.6875 L 35.203125 -52.6875 C 37.847656 -52.6875 40.078125 -51.300781 41.890625 -48.53125 C 43.710938 -45.757812 44.625 -41.273438 44.625 -35.078125 C 44.625 -28.796875 43.796875 -24.226562 42.140625 -21.375 C 40.492188 -18.53125 37.851562 -16.941406 34.21875 -16.609375 Z M 38.421875 -19.21875 C 39.910156 -20.375 41.109375 -22.234375 42.015625 -24.796875 C 42.929688 -27.359375 43.390625 -30.785156 43.390625 -35.078125 C 43.390625 -36.734375 43.328125 -38.28125 43.203125 -39.71875 C 43.078125 -41.164062 42.847656 -42.425781 42.515625 -43.5 C 41.023438 -43.007812 39.96875 -42.039062 39.34375 -40.59375 C 38.726562 -39.144531 38.421875 -36.726562 38.421875 -33.34375 Z M 38.421875 -19.21875 "/></g></g></g><g fill="#000000" fill-opacity="1"><g transform="translate(182.024718, 127.045656)"><g><path d="M 48.34375 3.46875 C 47.4375 4.289062 46.007812 5.070312 44.0625 5.8125 C 42.125 6.5625 40.039062 7.019531 37.8125 7.1875 C 37.394531 7.269531 36.9375 7.3125 36.4375 7.3125 C 35.945312 7.3125 35.492188 7.3125 35.078125 7.3125 C 31.773438 7.3125 28.40625 6.875 24.96875 6 C 21.539062 5.132812 18.378906 3.769531 15.484375 1.90625 C 12.597656 0.0507812 10.265625 -2.378906 8.484375 -5.390625 C 6.710938 -8.410156 5.828125 -12.023438 5.828125 -16.234375 L 5.828125 -66.9375 L 26.03125 -68.671875 L 37.1875 -63.21875 L 37.1875 -21.9375 C 37.601562 -22.351562 37.992188 -22.625 38.359375 -22.75 C 38.734375 -22.875 39.085938 -23.222656 39.421875 -23.796875 L 39.421875 -68.671875 L 59.5 -70.40625 L 71.890625 -64.203125 L 71.890625 3.96875 L 52.796875 5.578125 Z M 40.65625 -67.546875 L 40.65625 -23.546875 C 39.832031 -21.984375 38.738281 -20.722656 37.375 -19.765625 C 36.007812 -18.816406 34.171875 -18.21875 31.859375 -17.96875 L 31.234375 -17.96875 C 29.503906 -17.96875 28 -18.546875 26.71875 -19.703125 C 25.4375 -20.859375 24.796875 -22.84375 24.796875 -25.65625 L 24.796875 -67.3125 L 7.0625 -65.8125 L 7.0625 -16.234375 C 7.0625 -10.535156 8.628906 -6.40625 11.765625 -3.84375 C 14.910156 -1.28125 18.796875 0 23.421875 0 L 25.78125 0 C 29.75 -0.414062 33.15625 -1.675781 36 -3.78125 C 38.851562 -5.882812 40.613281 -8.46875 41.28125 -11.53125 L 41.640625 -11.40625 L 41.640625 -1.859375 L 58.265625 -3.34375 L 58.265625 -69.046875 Z M 40.65625 -67.546875 "/></g></g></g><g fill="#000000" fill-opacity="1"><g transform="translate(259.739576, 127.045656)"><g><path d="M 5.828125 0.375 L 5.828125 -67.671875 L 25.78125 -69.53125 L 28.875 -68.046875 C 31.351562 -70.523438 34.25 -71.890625 37.5625 -72.140625 L 39.171875 -72.140625 C 40.578125 -72.140625 41.898438 -72.035156 43.140625 -71.828125 C 44.378906 -71.617188 45.578125 -71.394531 46.734375 -71.15625 L 59.125 -64.953125 L 61.484375 -43.625 C 57.679688 -45.113281 54.457031 -45.859375 51.8125 -45.859375 C 51.394531 -45.859375 50.957031 -45.859375 50.5 -45.859375 C 50.050781 -45.859375 49.617188 -45.816406 49.203125 -45.734375 C 47.222656 -45.566406 45.40625 -44.820312 43.75 -43.5 C 42.101562 -42.1875 40.800781 -40.515625 39.84375 -38.484375 C 38.894531 -36.460938 38.421875 -34.378906 38.421875 -32.234375 L 38.421875 4.703125 L 18.21875 6.5625 Z M 24.796875 -38.421875 C 24.796875 -40.816406 25.332031 -43.109375 26.40625 -45.296875 C 27.476562 -47.492188 28.921875 -49.3125 30.734375 -50.75 C 32.554688 -52.195312 34.539062 -53.003906 36.6875 -53.171875 C 37.1875 -53.253906 37.679688 -53.296875 38.171875 -53.296875 C 38.671875 -53.296875 39.128906 -53.296875 39.546875 -53.296875 C 41.023438 -53.296875 42.40625 -53.148438 43.6875 -52.859375 C 44.96875 -52.578125 46.269531 -52.1875 47.59375 -51.6875 L 45.484375 -70.03125 C 44.742188 -70.195312 43.835938 -70.382812 42.765625 -70.59375 C 41.691406 -70.800781 40.492188 -70.90625 39.171875 -70.90625 L 37.6875 -70.90625 C 34.789062 -70.65625 32.125 -69.351562 29.6875 -67 C 27.25 -64.644531 25.660156 -61.648438 24.921875 -58.015625 L 24.546875 -58.015625 L 24.546875 -68.171875 L 7.0625 -66.5625 L 7.0625 -0.875 L 24.796875 -2.484375 Z M 24.796875 -38.421875 "/></g></g></g><g fill="#000000" fill-opacity="1"><g transform="translate(321.093436, 127.045656)"><g><path d="M 71.390625 2.234375 C 68.753906 3.304688 66.03125 3.84375 63.21875 3.84375 C 60.65625 3.84375 58.296875 3.488281 56.140625 2.78125 C 53.992188 2.082031 52.34375 1.40625 51.1875 0.75 C 47.550781 5.125 42.222656 7.644531 35.203125 8.3125 C 34.546875 8.382812 33.882812 8.421875 33.21875 8.421875 C 32.5625 8.421875 31.898438 8.421875 31.234375 8.421875 C 26.109375 8.421875 21.394531 7.53125 17.09375 5.75 C 12.800781 3.976562 9.351562 1.296875 6.75 -2.296875 C 4.144531 -5.890625 2.84375 -10.332031 2.84375 -15.625 C 2.84375 -21.320312 4.429688 -25.863281 7.609375 -29.25 C 10.796875 -32.632812 15.570312 -35.859375 21.9375 -38.921875 L 15.625 -41.03125 L 3.21875 -47.21875 C 5.289062 -54.414062 8.660156 -59.832031 13.328125 -63.46875 C 17.992188 -67.101562 23.300781 -69.207031 29.25 -69.78125 C 30 -69.863281 30.742188 -69.925781 31.484375 -69.96875 C 32.222656 -70.007812 32.925781 -70.03125 33.59375 -70.03125 C 39.539062 -70.03125 44.953125 -68.9375 49.828125 -66.75 C 54.703125 -64.5625 58.582031 -61.460938 61.46875 -57.453125 C 64.363281 -53.441406 65.8125 -48.753906 65.8125 -43.390625 L 65.8125 -19.828125 L 73.375 -16.109375 Z M 59.5 -20.203125 C 57.507812 -19.296875 56.019531 -18.84375 55.03125 -18.84375 C 53.132812 -18.84375 52.1875 -20.082031 52.1875 -22.5625 L 52.1875 -49.578125 C 52.1875 -62.304688 45.78125 -68.671875 32.96875 -68.671875 C 32.394531 -68.671875 31.816406 -68.671875 31.234375 -68.671875 C 30.660156 -68.671875 30.039062 -68.628906 29.375 -68.546875 C 23.675781 -67.960938 18.59375 -65.976562 14.125 -62.59375 C 9.664062 -59.207031 6.523438 -54.289062 4.703125 -47.84375 L 18.59375 -43.265625 C 19.5 -46.066406 20.757812 -48.335938 22.375 -50.078125 C 23.988281 -51.816406 25.828125 -52.765625 27.890625 -52.921875 C 28.140625 -52.921875 28.382812 -52.941406 28.625 -52.984375 C 28.875 -53.023438 29.082031 -53.046875 29.25 -53.046875 C 31.15625 -53.046875 32.601562 -52.59375 33.59375 -51.6875 C 34.582031 -50.78125 35.078125 -49.539062 35.078125 -47.96875 C 35.078125 -46.226562 34.539062 -44.84375 33.46875 -43.8125 C 32.394531 -42.78125 30.90625 -41.8125 29 -40.90625 L 23.421875 -38.296875 C 17.054688 -35.328125 12.242188 -32.207031 8.984375 -28.9375 C 5.722656 -25.675781 4.09375 -21.238281 4.09375 -15.625 C 4.09375 -4.550781 9.296875 0.984375 19.703125 0.984375 C 20.203125 0.984375 20.695312 0.984375 21.1875 0.984375 C 21.6875 0.984375 22.1875 0.945312 22.6875 0.875 C 26.65625 0.539062 30.082031 -0.410156 32.96875 -1.984375 C 35.863281 -3.554688 38.054688 -5.785156 39.546875 -8.671875 C 40.117188 -6.941406 41.351562 -5.578125 43.25 -4.578125 C 45.15625 -3.585938 47.390625 -3.09375 49.953125 -3.09375 C 52.679688 -3.09375 55.285156 -3.628906 57.765625 -4.703125 Z M 26.15625 -13.515625 C 24.75 -13.515625 23.585938 -13.90625 22.671875 -14.6875 C 21.765625 -15.46875 21.3125 -16.601562 21.3125 -18.09375 C 21.3125 -21.644531 23.132812 -24.289062 26.78125 -26.03125 L 29.25 -27.265625 C 30.40625 -27.847656 31.539062 -28.40625 32.65625 -28.9375 C 33.769531 -29.476562 34.617188 -30.078125 35.203125 -30.734375 L 35.203125 -22.1875 C 34.785156 -19.625 33.789062 -17.578125 32.21875 -16.046875 C 30.65625 -14.523438 28.921875 -13.679688 27.015625 -13.515625 Z M 26.15625 -13.515625 "/></g></g></g><g fill="#000000" fill-opacity="1"><g transform="translate(395.709667, 127.045656)"><g><path d="M 48.34375 3.46875 C 47.4375 4.289062 46.007812 5.070312 44.0625 5.8125 C 42.125 6.5625 40.039062 7.019531 37.8125 7.1875 C 37.394531 7.269531 36.9375 7.3125 36.4375 7.3125 C 35.945312 7.3125 35.492188 7.3125 35.078125 7.3125 C 31.773438 7.3125 28.40625 6.875 24.96875 6 C 21.539062 5.132812 18.378906 3.769531 15.484375 1.90625 C 12.597656 0.0507812 10.265625 -2.378906 8.484375 -5.390625 C 6.710938 -8.410156 5.828125 -12.023438 5.828125 -16.234375 L 5.828125 -66.9375 L 26.03125 -68.671875 L 37.1875 -63.21875 L 37.1875 -21.9375 C 37.601562 -22.351562 37.992188 -22.625 38.359375 -22.75 C 38.734375 -22.875 39.085938 -23.222656 39.421875 -23.796875 L 39.421875 -68.671875 L 59.5 -70.40625 L 71.890625 -64.203125 L 71.890625 3.96875 L 52.796875 5.578125 Z M 40.65625 -67.546875 L 40.65625 -23.546875 C 39.832031 -21.984375 38.738281 -20.722656 37.375 -19.765625 C 36.007812 -18.816406 34.171875 -18.21875 31.859375 -17.96875 L 31.234375 -17.96875 C 29.503906 -17.96875 28 -18.546875 26.71875 -19.703125 C 25.4375 -20.859375 24.796875 -22.84375 24.796875 -25.65625 L 24.796875 -67.3125 L 7.0625 -65.8125 L 7.0625 -16.234375 C 7.0625 -10.535156 8.628906 -6.40625 11.765625 -3.84375 C 14.910156 -1.28125 18.796875 0 23.421875 0 L 25.78125 0 C 29.75 -0.414062 33.15625 -1.675781 36 -3.78125 C 38.851562 -5.882812 40.613281 -8.46875 41.28125 -11.53125 L 41.640625 -11.40625 L 41.640625 -1.859375 L 58.265625 -3.34375 L 58.265625 -69.046875 Z M 40.65625 -67.546875 "/></g></g></g><g fill="#000000" fill-opacity="1"><g transform="translate(473.424524, 127.045656)"><g><path d="M 70.15625 -0.625 L 70.15625 5.203125 L 50.203125 7.0625 L 38.421875 0.875 L 38.421875 6.8125 L 18.21875 8.546875 L 5.828125 2.359375 L 5.828125 -65.6875 L 24.796875 -67.3125 L 28.140625 -64.328125 C 29.460938 -65.566406 31.070312 -66.617188 32.96875 -67.484375 C 34.875 -68.359375 36.816406 -68.878906 38.796875 -69.046875 C 39.128906 -69.046875 39.4375 -69.066406 39.71875 -69.109375 C 40.007812 -69.148438 40.320312 -69.171875 40.65625 -69.171875 C 44.039062 -69.171875 47.203125 -68.382812 50.140625 -66.8125 C 53.078125 -65.238281 55.328125 -63.460938 56.890625 -61.484375 C 58.046875 -63.628906 59.78125 -65.628906 62.09375 -67.484375 C 64.414062 -69.347656 67.226562 -70.40625 70.53125 -70.65625 C 70.945312 -70.65625 71.378906 -70.675781 71.828125 -70.71875 C 72.285156 -70.757812 72.757812 -70.78125 73.25 -70.78125 C 78.289062 -70.78125 83 -69.828125 87.375 -67.921875 C 91.757812 -66.023438 95.296875 -63.28125 97.984375 -59.6875 C 100.671875 -56.09375 102.015625 -51.734375 102.015625 -46.609375 L 102.015625 3.84375 L 81.8125 5.453125 Z M 88.375 -52.796875 C 88.375 -58.503906 86.882812 -62.71875 83.90625 -65.4375 C 80.9375 -68.164062 77.222656 -69.53125 72.765625 -69.53125 C 72.429688 -69.53125 72.097656 -69.507812 71.765625 -69.46875 C 71.429688 -69.425781 71.0625 -69.40625 70.65625 -69.40625 C 68.007812 -69.164062 65.671875 -68.34375 63.640625 -66.9375 C 61.617188 -65.53125 59.988281 -63.832031 58.75 -61.84375 C 57.507812 -59.863281 56.644531 -57.84375 56.15625 -55.78125 L 55.78125 -55.90625 C 55.113281 -58.875 53.5625 -61.617188 51.125 -64.140625 C 48.6875 -66.660156 45.238281 -67.921875 40.78125 -67.921875 C 40.445312 -67.921875 40.132812 -67.898438 39.84375 -67.859375 C 39.5625 -67.816406 39.253906 -67.796875 38.921875 -67.796875 C 34.867188 -67.472656 31.519531 -65.90625 28.875 -63.09375 C 26.238281 -60.28125 24.585938 -57.097656 23.921875 -53.546875 L 23.546875 -53.421875 L 23.546875 -65.9375 L 7.0625 -64.578125 L 7.0625 0.984375 L 24.796875 -0.375 L 24.796875 -40.90625 C 25.203125 -42.96875 26.046875 -44.828125 27.328125 -46.484375 C 28.609375 -48.140625 30.363281 -49.046875 32.59375 -49.203125 L 33.46875 -49.203125 C 35.207031 -49.203125 36.570312 -48.601562 37.5625 -47.40625 C 38.550781 -46.207031 39.046875 -44.25 39.046875 -41.53125 L 39.046875 -0.375 L 56.515625 -1.984375 L 56.515625 -42.515625 C 56.929688 -44.492188 57.78125 -46.3125 59.0625 -47.96875 C 60.34375 -49.625 62.054688 -50.535156 64.203125 -50.703125 L 65.078125 -50.703125 C 66.890625 -50.703125 68.269531 -50.117188 69.21875 -48.953125 C 70.175781 -47.796875 70.65625 -45.859375 70.65625 -43.140625 L 70.65625 -1.984375 L 88.375 -3.46875 Z M 88.375 -52.796875 "/></g></g></g><g fill="#000000" fill-opacity="1"><g transform="translate(581.258621, 127.045656)"><g><path d="M 6.453125 -0.375 L 6.453125 -68.546875 L 14.875 -69.171875 L 6.203125 -73.5 L 6.203125 -94.578125 L 26.890625 -96.3125 L 39.296875 -90.109375 L 39.296875 -69.046875 L 30.5 -68.296875 L 38.921875 -64.078125 L 38.921875 3.96875 L 18.84375 5.703125 Z M 7.4375 -93.453125 L 7.4375 -74.875 L 25.65625 -76.359375 L 25.65625 -94.953125 Z M 7.6875 -67.4375 L 7.6875 -1.734375 L 25.28125 -3.21875 L 25.28125 -68.921875 Z M 7.6875 -67.4375 "/></g></g></g><g fill="#c645b9" fill-opacity="1"><g transform="translate(113.288311, 126.373292)"><g><path d="M 24.078125 -48.8125 L 24.34375 -48.8125 C 26.8125 -53.050781 29.851562 -56.445312 33.46875 -59 C 37.082031 -61.5625 40.921875 -62.84375 44.984375 -62.84375 C 49.390625 -62.84375 53.421875 -61.492188 57.078125 -58.796875 C 60.742188 -56.109375 63.65625 -52.425781 65.8125 -47.75 C 67.976562 -43.082031 69.0625 -37.96875 69.0625 -32.40625 C 69.0625 -26.144531 67.691406 -20.390625 64.953125 -15.140625 C 62.222656 -9.898438 58.519531 -5.753906 53.84375 -2.703125 C 49.164062 0.335938 44.050781 1.859375 38.5 1.859375 C 32.851562 1.859375 28.046875 -0.0390625 24.078125 -3.84375 L 24.078125 13.765625 C 24.078125 17.203125 24.425781 19.757812 25.125 21.4375 C 25.832031 23.113281 26.957031 24.238281 28.5 24.8125 C 30.050781 25.382812 32.28125 25.671875 35.1875 25.671875 L 35.1875 28.046875 L 2.25 28.046875 L 2.25 25.671875 C 5.15625 25.671875 7.378906 25.359375 8.921875 24.734375 C 10.472656 24.117188 11.578125 22.972656 12.234375 21.296875 C 12.898438 19.617188 13.234375 17.148438 13.234375 13.890625 L 13.234375 -46.171875 C 13.234375 -48.460938 12.742188 -50.335938 11.765625 -51.796875 C 10.796875 -53.253906 9.300781 -53.984375 7.28125 -53.984375 C 6.21875 -53.984375 4.894531 -53.71875 3.3125 -53.1875 L 2.25 -55.5625 L 21.828125 -62.84375 L 24.078125 -62.84375 Z M 24.078125 -44.71875 L 24.078125 -16.796875 C 24.078125 -12.828125 25.441406 -9.410156 28.171875 -6.546875 C 30.910156 -3.679688 34.53125 -2.25 39.03125 -2.25 C 44.757812 -2.25 49.320312 -4.5625 52.71875 -9.1875 C 56.113281 -13.820312 57.8125 -20.019531 57.8125 -27.78125 C 57.8125 -35.28125 56.113281 -41.429688 52.71875 -46.234375 C 49.320312 -51.046875 44.890625 -53.453125 39.421875 -53.453125 C 33.953125 -53.453125 28.835938 -50.539062 24.078125 -44.71875 Z M 24.078125 -44.71875 "/></g></g></g><g fill="#c645b9" fill-opacity="1"><g transform="translate(193.060676, 126.373292)"><g><path d="M 24.34375 -17.46875 C 24.34375 -14.289062 25.3125 -11.6875 27.25 -9.65625 C 29.1875 -7.625 31.566406 -6.609375 34.390625 -6.609375 C 36.953125 -6.609375 39.597656 -7.289062 42.328125 -8.65625 C 45.066406 -10.03125 47.671875 -12.039062 50.140625 -14.6875 L 50.140625 -51.328125 C 50.140625 -56.441406 47.140625 -59 41.140625 -59 L 39.828125 -59 L 39.828125 -61.390625 L 60.984375 -61.390625 L 60.984375 -14.28125 C 60.984375 -12.695312 61.445312 -11.085938 62.375 -9.453125 C 63.300781 -7.828125 64.78125 -7.015625 66.8125 -7.015625 C 67.957031 -7.015625 69.410156 -7.363281 71.171875 -8.0625 L 71.171875 -5.5625 L 52.65625 1.59375 L 50.140625 1.59375 L 50.140625 -11.375 L 49.875 -11.375 C 42.726562 -2.550781 35.847656 1.859375 29.234375 1.859375 C 25.878906 1.859375 23.007812 1 20.625 -0.71875 C 18.25 -2.445312 16.46875 -4.632812 15.28125 -7.28125 C 14.09375 -9.925781 13.5 -12.613281 13.5 -15.34375 L 13.5 -50.265625 C 13.5 -53.710938 12.722656 -56.03125 11.171875 -57.21875 C 9.628906 -58.40625 7.226562 -59 3.96875 -59 L 2.375 -59 L 2.375 -61.390625 L 24.34375 -61.390625 Z M 24.34375 -17.46875 "/></g></g></g><g fill="#c645b9" fill-opacity="1"><g transform="translate(272.833041, 126.373292)"><g><path d="M 24.46875 -50.40625 L 24.734375 -50.40625 C 27.023438 -54.457031 29.515625 -57.539062 32.203125 -59.65625 C 34.898438 -61.78125 37.925781 -62.84375 41.28125 -62.84375 C 43.65625 -62.84375 45.59375 -62.113281 47.09375 -60.65625 C 48.59375 -59.195312 49.34375 -57.410156 49.34375 -55.296875 C 49.34375 -53.617188 48.75 -52.207031 47.5625 -51.0625 C 46.375 -49.914062 45.03125 -49.34375 43.53125 -49.34375 C 42.289062 -49.34375 41.273438 -49.582031 40.484375 -50.0625 C 39.691406 -50.550781 38.894531 -51.195312 38.09375 -52 C 37.925781 -52.082031 37.617188 -52.34375 37.171875 -52.78125 C 36.734375 -53.226562 36.269531 -53.5625 35.78125 -53.78125 C 35.300781 -54 34.796875 -54.109375 34.265625 -54.109375 C 32.234375 -54.109375 30.488281 -53.289062 29.03125 -51.65625 C 27.582031 -50.03125 26.0625 -47.804688 24.46875 -44.984375 L 24.46875 -14.03125 C 24.46875 -10.582031 24.84375 -8.019531 25.59375 -6.34375 C 26.34375 -4.675781 27.507812 -3.597656 29.09375 -3.109375 C 30.6875 -2.617188 33.023438 -2.375 36.109375 -2.375 L 36.109375 0 L 3.578125 0 L 3.578125 -2.375 L 4.234375 -2.375 C 7.492188 -2.375 9.875 -3.164062 11.375 -4.75 C 12.875 -6.34375 13.625 -9.257812 13.625 -13.5 L 13.625 -43.65625 C 13.625 -47.800781 13.179688 -50.515625 12.296875 -51.796875 C 11.421875 -53.078125 9.878906 -53.71875 7.671875 -53.71875 C 6.347656 -53.71875 5.242188 -53.453125 4.359375 -52.921875 L 3.578125 -55.171875 L 22.09375 -62.84375 L 24.46875 -62.84375 Z M 24.46875 -50.40625 "/></g></g></g><g fill="#c645b9" fill-opacity="1"><g transform="translate(330.5127, 126.373292)"><g><path d="M 31.625 -62.84375 C 44.851562 -62.84375 51.46875 -57.550781 51.46875 -46.96875 L 51.46875 -11.90625 C 51.46875 -9.519531 51.816406 -7.953125 52.515625 -7.203125 C 53.222656 -6.453125 54.148438 -6.078125 55.296875 -6.078125 C 56.617188 -6.078125 57.851562 -6.453125 59 -7.203125 C 60.144531 -7.953125 61.820312 -9.390625 64.03125 -11.515625 L 64.03125 -8.203125 C 60.675781 -4.410156 57.914062 -1.785156 55.75 -0.328125 C 53.59375 1.128906 51.367188 1.859375 49.078125 1.859375 C 46.523438 1.859375 44.472656 0.953125 42.921875 -0.859375 C 41.378906 -2.671875 40.609375 -5.335938 40.609375 -8.859375 C 36.734375 -5.160156 33.140625 -2.445312 29.828125 -0.71875 C 26.523438 1 22.929688 1.859375 19.046875 1.859375 C 15.171875 1.859375 11.910156 0.40625 9.265625 -2.5 C 6.617188 -5.414062 5.296875 -8.945312 5.296875 -13.09375 C 5.296875 -20.15625 9.039062 -25.625 16.53125 -29.5 C 23.675781 -33.289062 31.703125 -36.773438 40.609375 -39.953125 L 40.609375 -43.65625 C 40.609375 -47.1875 40.363281 -50.007812 39.875 -52.125 C 39.394531 -54.238281 38.296875 -55.9375 36.578125 -57.21875 C 34.859375 -58.5 32.234375 -59.140625 28.703125 -59.140625 C 25.265625 -59.140625 22.707031 -58.300781 21.03125 -56.625 C 19.351562 -54.945312 18.515625 -52.875 18.515625 -50.40625 L 18.65625 -46.96875 C 18.65625 -45.46875 18.171875 -44.234375 17.203125 -43.265625 C 16.234375 -42.296875 15 -41.8125 13.5 -41.8125 C 11.820312 -41.8125 10.453125 -42.296875 9.390625 -43.265625 C 8.335938 -44.234375 7.8125 -45.597656 7.8125 -47.359375 C 7.8125 -51.773438 9.878906 -55.457031 14.015625 -58.40625 C 18.160156 -61.363281 24.03125 -62.84375 31.625 -62.84375 Z M 16.53125 -16.53125 C 16.53125 -13.53125 17.476562 -10.972656 19.375 -8.859375 C 21.269531 -6.742188 23.628906 -5.6875 26.453125 -5.6875 C 30.953125 -5.6875 35.671875 -7.890625 40.609375 -12.296875 L 40.609375 -36.375 C 34.441406 -33.820312 29.679688 -31.597656 26.328125 -29.703125 C 22.972656 -27.804688 20.5 -25.84375 18.90625 -23.8125 C 17.320312 -21.78125 16.53125 -19.351562 16.53125 -16.53125 Z M 16.53125 -16.53125 "/></g></g></g><g fill="#c645b9" fill-opacity="1"><g transform="translate(403.405898, 126.373292)"><g><path d="M 24.34375 -17.46875 C 24.34375 -14.289062 25.3125 -11.6875 27.25 -9.65625 C 29.1875 -7.625 31.566406 -6.609375 34.390625 -6.609375 C 36.953125 -6.609375 39.597656 -7.289062 42.328125 -8.65625 C 45.066406 -10.03125 47.671875 -12.039062 50.140625 -14.6875 L 50.140625 -51.328125 C 50.140625 -56.441406 47.140625 -59 41.140625 -59 L 39.828125 -59 L 39.828125 -61.390625 L 60.984375 -61.390625 L 60.984375 -14.28125 C 60.984375 -12.695312 61.445312 -11.085938 62.375 -9.453125 C 63.300781 -7.828125 64.78125 -7.015625 66.8125 -7.015625 C 67.957031 -7.015625 69.410156 -7.363281 71.171875 -8.0625 L 71.171875 -5.5625 L 52.65625 1.59375 L 50.140625 1.59375 L 50.140625 -11.375 L 49.875 -11.375 C 42.726562 -2.550781 35.847656 1.859375 29.234375 1.859375 C 25.878906 1.859375 23.007812 1 20.625 -0.71875 C 18.25 -2.445312 16.46875 -4.632812 15.28125 -7.28125 C 14.09375 -9.925781 13.5 -12.613281 13.5 -15.34375 L 13.5 -50.265625 C 13.5 -53.710938 12.722656 -56.03125 11.171875 -57.21875 C 9.628906 -58.40625 7.226562 -59 3.96875 -59 L 2.375 -59 L 2.375 -61.390625 L 24.34375 -61.390625 Z M 24.34375 -17.46875 "/></g></g></g><g fill="#c645b9" fill-opacity="1"><g transform="translate(483.178268, 126.373292)"><g><path d="M 23.15625 -62.84375 L 23.15625 -50.265625 C 30.738281 -58.648438 37.617188 -62.84375 43.796875 -62.84375 C 47.847656 -62.84375 51.175781 -61.71875 53.78125 -59.46875 C 56.382812 -57.21875 58.171875 -53.890625 59.140625 -49.484375 C 65.835938 -58.390625 73.15625 -62.84375 81.09375 -62.84375 C 86.832031 -62.84375 90.957031 -60.789062 93.46875 -56.6875 C 95.976562 -52.582031 97.234375 -47.84375 97.234375 -42.46875 L 97.234375 -14.03125 C 97.234375 -10.675781 97.5625 -8.179688 98.21875 -6.546875 C 98.882812 -4.910156 99.921875 -3.804688 101.328125 -3.234375 C 102.742188 -2.660156 104.734375 -2.375 107.296875 -2.375 L 107.296875 0 L 76.078125 0 L 76.078125 -2.375 C 78.804688 -2.375 80.875 -2.640625 82.28125 -3.171875 C 83.695312 -3.703125 84.734375 -4.804688 85.390625 -6.484375 C 86.054688 -8.160156 86.390625 -10.757812 86.390625 -14.28125 L 86.390625 -43.65625 C 86.390625 -46.738281 85.484375 -49.382812 83.671875 -51.59375 C 81.867188 -53.800781 79.25 -54.90625 75.8125 -54.90625 C 72.988281 -54.90625 70.097656 -54.15625 67.140625 -52.65625 C 64.179688 -51.15625 61.734375 -49.171875 59.796875 -46.703125 L 60.1875 -38.890625 L 60.1875 -14.03125 C 60.1875 -10.675781 60.539062 -8.179688 61.25 -6.546875 C 61.957031 -4.910156 62.992188 -3.804688 64.359375 -3.234375 C 65.722656 -2.660156 67.6875 -2.375 70.25 -2.375 L 70.25 0 L 38.890625 0 L 38.890625 -2.375 C 41.628906 -2.375 43.722656 -2.640625 45.171875 -3.171875 C 46.628906 -3.703125 47.6875 -4.78125 48.34375 -6.40625 C 49.007812 -8.039062 49.34375 -10.582031 49.34375 -14.03125 L 49.34375 -42.59375 C 49.34375 -45.6875 48.460938 -48.507812 46.703125 -51.0625 C 44.941406 -53.625 42.296875 -54.90625 38.765625 -54.90625 C 36.472656 -54.90625 33.957031 -54.242188 31.21875 -52.921875 C 28.488281 -51.597656 25.800781 -49.566406 23.15625 -46.828125 L 23.15625 -14.03125 C 23.15625 -9.53125 23.859375 -6.460938 25.265625 -4.828125 C 26.679688 -3.191406 28.972656 -2.375 32.140625 -2.375 L 32.9375 -2.375 L 32.9375 0 L 1.984375 0 L 1.984375 -2.375 C 4.710938 -2.375 6.78125 -2.640625 8.1875 -3.171875 C 9.601562 -3.703125 10.640625 -4.804688 11.296875 -6.484375 C 11.960938 -8.160156 12.296875 -10.675781 12.296875 -14.03125 L 12.296875 -45.375 C 12.296875 -47.9375 11.765625 -50.050781 10.703125 -51.71875 C 9.648438 -53.394531 7.976562 -54.234375 5.6875 -54.234375 C 4.363281 -54.234375 3.128906 -54.015625 1.984375 -53.578125 L 1.0625 -55.828125 L 20.90625 -62.84375 Z M 23.15625 -62.84375 "/></g></g></g><g fill="#c645b9" fill-opacity="1"><g transform="translate(598.80166, 126.373292)"><g><path d="M 18 -95.25 C 19.9375 -95.25 21.566406 -94.585938 22.890625 -93.265625 C 24.210938 -91.941406 24.875 -90.351562 24.875 -88.5 C 24.875 -86.5625 24.210938 -84.929688 22.890625 -83.609375 C 21.566406 -82.285156 19.9375 -81.625 18 -81.625 C 16.144531 -81.625 14.554688 -82.285156 13.234375 -83.609375 C 11.910156 -84.929688 11.25 -86.5625 11.25 -88.5 C 11.25 -90.351562 11.910156 -91.941406 13.234375 -93.265625 C 14.554688 -94.585938 16.144531 -95.25 18 -95.25 Z M 23.8125 -13.765625 C 23.8125 -9.441406 24.515625 -6.484375 25.921875 -4.890625 C 27.335938 -3.304688 29.632812 -2.46875 32.8125 -2.375 L 32.8125 0 L 3.046875 0 L 3.046875 -2.375 C 6.660156 -2.375 9.21875 -3.210938 10.71875 -4.890625 C 12.21875 -6.566406 12.96875 -9.613281 12.96875 -14.03125 L 12.96875 -46.046875 C 12.96875 -48.421875 12.4375 -50.359375 11.375 -51.859375 C 10.320312 -53.359375 8.691406 -54.109375 6.484375 -54.109375 C 5.515625 -54.109375 4.632812 -53.890625 3.84375 -53.453125 L 3.046875 -55.828125 L 21.4375 -62.84375 L 23.8125 -62.84375 Z M 23.8125 -13.765625 "/></g></g></g></svg>